<?xml version="1.0" standalone="no"?>
<!DOCTYPE svg PUBLIC "-//W3C//DTD SVG 20010904//EN"
 "http://www.w3.org/TR/2001/REC-SVG-20010904/DTD/svg10.dtd">
<svg version="1.0" xmlns="http://www.w3.org/2000/svg"
 width="580.000000pt" height="580.000000pt" viewBox="0 0 580.000000 580.000000"
 preserveAspectRatio="xMidYMid meet">

<g transform="translate(0.000000,580.000000) scale(0.100000,-0.100000)"
fill="#000000" stroke="none">
<path d="M1473 5793 c797 -2 2097 -2 2890 0 793 1 142 2 -1448 2 -1589 0
-2238 -1 -1442 -2z"/>
<path d="M4458 5013 c6 -2 18 -2 25 0 6 3 1 5 -13 5 -14 0 -19 -2 -12 -5z"/>
<path d="M4655 4975 c4 -17 11 -34 16 -39 5 -5 4 5 -1 24 -12 42 -24 55 -15
15z"/>
<path d="M4024 4924 c-18 -14 -18 -15 4 -4 12 6 28 8 34 4 7 -4 8 -3 4 4 -10
16 -18 15 -42 -4z"/>
<path d="M4080 4907 c0 -2 15 -16 33 -33 l32 -29 -29 33 c-28 30 -36 37 -36
29z"/>
<path d="M4358 4877 c-3 -19 -2 -25 4 -19 6 6 8 18 6 28 -3 14 -5 12 -10 -9z"/>
<path d="M3929 4869 l-24 -20 28 17 c15 9 27 18 27 20 0 8 -8 4 -31 -17z"/>
<path d="M4164 4833 c20 -24 41 -29 51 -13 3 6 -1 7 -10 4 -9 -4 -26 2 -38 12
l-22 19 19 -22z"/>
<path d="M4900 4809 l-35 -30 38 26 c33 24 43 35 34 35 -1 0 -18 -14 -37 -31z"/>
<path d="M5090 4826 c0 -3 9 -10 20 -16 11 -6 20 -8 20 -6 0 3 -9 10 -20 16
-11 6 -20 8 -20 6z"/>
<path d="M3847 4813 c-2 -5 0 -19 4 -33 7 -23 7 -22 6 8 -1 33 -3 37 -10 25z"/>
<path d="M4780 4810 c8 -5 20 -10 25 -10 6 0 3 5 -5 10 -8 5 -19 10 -25 10 -5
0 -3 -5 5 -10z"/>
<path d="M5176 4698 c-11 -35 -13 -58 -6 -53 4 3 10 18 12 35 5 30 1 41 -6 18z"/>
<path d="M3815 4590 c-39 -39 -65 -58 -75 -55 -12 5 -13 4 -2 -7 10 -10 25 0
80 55 37 37 64 67 62 67 -3 0 -32 -27 -65 -60z"/>
<path d="M4417 4633 c-3 -5 16 -7 41 -5 73 5 82 10 20 11 -31 0 -59 -2 -61 -6z"/>
<path d="M4336 4622 c-2 -4 11 -6 30 -4 19 2 34 6 34 8 0 8 -59 4 -64 -4z"/>
<path d="M4553 4623 c9 -2 25 -2 35 0 9 3 1 5 -18 5 -19 0 -27 -2 -17 -5z"/>
<path d="M4380 4590 l-45 -7 42 -1 c23 -1 45 3 48 8 3 6 5 9 3 8 -2 0 -23 -4
-48 -8z"/>
<path d="M4549 4587 c5 -5 21 -7 37 -5 27 3 26 4 -8 9 -22 3 -34 1 -29 -4z"/>
<path d="M4185 4570 c-3 -6 1 -7 9 -4 18 7 21 14 7 14 -6 0 -13 -4 -16 -10z"/>
<path d="M3560 4540 c-6 -11 -8 -20 -6 -20 3 0 10 9 16 20 6 11 8 20 6 20 -3
0 -10 -9 -16 -20z"/>
<path d="M5170 4556 c0 -2 8 -10 18 -17 15 -13 16 -12 3 4 -13 16 -21 21 -21
13z"/>
<path d="M3697 4539 c7 -7 15 -10 18 -7 3 3 -2 9 -12 12 -14 6 -15 5 -6 -5z"/>
<path d="M4200 4535 c-14 -8 -20 -14 -14 -15 5 0 19 7 30 15 24 18 16 19 -16
0z"/>
<path d="M4737 4539 c7 -7 15 -10 18 -7 3 3 -2 9 -12 12 -14 6 -15 5 -6 -5z"/>
<path d="M4850 4526 c0 -2 8 -10 18 -17 15 -13 16 -12 3 4 -13 16 -21 21 -21
13z"/>
<path d="M4010 4458 c-26 -24 -32 -32 -15 -20 28 18 73 63 64 62 -2 -1 -24
-19 -49 -42z"/>
<path d="M4089 4469 l-24 -20 28 17 c15 9 27 18 27 20 0 8 -8 4 -31 -17z"/>
<path d="M4865 4470 c10 -11 20 -20 23 -20 3 0 -3 9 -13 20 -10 11 -20 20 -23
20 -3 0 3 -9 13 -20z"/>
<path d="M4235 4465 c-25 -12 -26 -14 -5 -9 14 4 29 10 35 15 12 12 5 11 -30
-6z"/>
<path d="M4650 4474 c0 -7 52 -25 57 -20 2 2 -10 8 -26 14 -17 6 -31 9 -31 6z"/>
<path d="M4976 4428 c38 -35 45 -47 42 -70 -3 -18 1 -33 11 -41 12 -9 13 -9 7
1 -4 7 -1 12 9 12 15 0 15 1 1 16 -9 8 -16 21 -16 27 0 13 -80 97 -92 97 -4 0
13 -19 38 -42z"/>
<path d="M5402 4463 c41 -4 48 -8 57 -34 5 -16 12 -29 16 -29 3 0 -1 15 -8 33
-12 30 -17 32 -63 33 l-49 1 47 -4z"/>
<path d="M4945 4402 c27 -28 50 -52 51 -52 1 0 0 9 -3 20 -3 12 -8 18 -11 15
-3 -3 -24 12 -46 32 -30 28 -28 24 9 -15z"/>
<path d="M3496 4423 c-6 -14 -5 -15 5 -6 7 7 10 15 7 18 -3 3 -9 -2 -12 -12z"/>
<path d="M4119 4403 c-13 -16 -12 -17 4 -4 9 7 17 15 17 17 0 8 -8 3 -21 -13z"/>
<path d="M4780 4416 c0 -2 8 -10 18 -17 15 -13 16 -12 3 4 -13 16 -21 21 -21
13z"/>
<path d="M3909 4353 l-24 -28 28 24 c25 23 32 31 24 31 -2 0 -14 -12 -28 -27z"/>
<path d="M3480 4346 c0 -2 8 -10 18 -17 15 -13 16 -12 3 4 -13 16 -21 21 -21
13z"/>
<path d="M5512 4299 c6 -16 12 -28 14 -26 5 5 -13 57 -20 57 -3 0 0 -14 6 -31z"/>
<path d="M3923 4308 c-15 -18 -35 -58 -29 -58 2 0 13 16 25 35 20 35 22 46 4
23z"/>
<path d="M5055 4276 c10 -14 19 -26 22 -26 7 0 -17 39 -28 46 -6 3 -3 -5 6
-20z"/>
<path d="M3979 4273 c-13 -16 -12 -17 4 -4 16 13 21 21 13 21 -2 0 -10 -8 -17
-17z"/>
<path d="M3855 4269 c-4 -6 -5 -12 -2 -15 2 -3 7 2 10 11 7 17 1 20 -8 4z"/>
<path d="M5514 4238 l-19 -23 23 19 c12 11 22 21 22 23 0 8 -8 2 -26 -19z"/>
<path d="M3853 4233 c9 -2 23 -2 30 0 6 3 -1 5 -18 5 -16 0 -22 -2 -12 -5z"/>
<path d="M4991 4193 c7 -12 15 -20 18 -17 3 2 -3 12 -13 22 -17 16 -18 16 -5
-5z"/>
<path d="M3460 4190 c-23 -7 -23 -8 -3 -9 12 -1 25 4 28 9 3 6 5 10 3 9 -2 -1
-14 -5 -28 -9z"/>
<path d="M5430 4165 c-29 -30 -32 -37 -22 -57 l12 -23 -6 24 c-5 17 2 31 27
57 18 19 31 34 28 34 -3 0 -20 -16 -39 -35z"/>
<path d="M3913 4173 c-3 -10 -8 -22 -11 -27 -3 -5 0 -6 5 -3 11 7 25 47 17 47
-3 0 -7 -8 -11 -17z"/>
<path d="M5111 4170 c14 -31 19 -36 19 -24 0 6 -7 19 -16 30 -14 18 -14 18 -3
-6z"/>
<path d="M5157 4150 c3 -11 9 -22 13 -25 5 -3 6 4 3 15 -3 11 -9 22 -13 25 -5
3 -6 -4 -3 -15z"/>
<path d="M5136 4117 c3 -10 9 -15 12 -12 3 3 0 11 -7 18 -10 9 -11 8 -5 -6z"/>
<path d="M5041 4080 c15 -45 24 -54 15 -15 -4 17 -12 34 -17 40 -5 5 -4 -6 2
-25z"/>
<path d="M1523 4024 c-29 -11 -45 -23 -52 -42 -5 -15 -10 -22 -10 -15 -1 6
-12 2 -25 -10 -17 -15 -21 -24 -13 -29 7 -5 3 -8 -11 -8 -17 0 -26 -10 -38
-40 -9 -22 -20 -40 -25 -40 -5 0 -9 -5 -9 -11 0 -6 -14 -41 -32 -78 -18 -36
-31 -69 -30 -73 1 -5 -4 -8 -10 -8 -9 0 -8 -4 2 -10 11 -7 12 -10 2 -10 -23 0
-46 -30 -33 -43 17 -17 13 -27 -9 -27 -11 0 -17 -5 -15 -12 3 -7 -6 -25 -20
-41 -15 -15 -24 -31 -21 -36 3 -5 -3 -19 -14 -31 -11 -13 -20 -29 -20 -36 0
-7 -6 -19 -13 -26 -7 -7 -22 -34 -32 -61 -10 -26 -21 -47 -25 -47 -4 0 -18
-27 -30 -60 -12 -33 -26 -60 -30 -60 -4 0 -18 -27 -30 -60 -12 -33 -26 -60
-31 -60 -4 0 -13 -24 -19 -52 -10 -48 -39 -116 -40 -94 0 17 -40 -37 -40 -56
0 -17 11 -18 173 -18 94 0 177 4 183 8 15 9 44 79 36 86 -3 3 1 6 9 6 12 0 12
2 0 9 -11 7 -9 10 6 15 13 4 27 25 38 54 10 26 22 51 26 57 5 5 9 17 9 27 0 9
8 21 17 26 9 6 19 28 22 53 5 34 10 44 25 42 14 -1 16 4 12 23 -5 17 -2 24 9
24 8 0 15 7 15 15 0 8 4 15 9 15 5 0 15 17 22 38 13 36 14 43 17 70 1 6 8 12
16 12 8 0 22 22 32 50 10 28 22 50 27 50 4 0 5 5 2 10 -3 6 -2 10 4 10 11 0
26 38 23 58 -2 6 1 12 7 12 5 0 7 9 4 20 -4 15 0 20 16 20 17 0 21 5 17 24 -3
17 1 25 14 29 15 4 22 -3 30 -29 7 -19 16 -34 21 -34 5 0 8 -3 7 -7 -3 -16 41
-100 55 -106 9 -3 15 -14 15 -24 -2 -24 35 -106 58 -130 44 -44 34 -48 -121
-45 -82 2 -145 -1 -145 -6 0 -5 -12 -22 -26 -37 -14 -16 -35 -47 -46 -69 -10
-23 -28 -59 -40 -81 -11 -22 -21 -50 -22 -62 0 -13 -5 -23 -9 -23 -5 0 -6 -4
-3 -9 4 -5 0 -12 -6 -14 -7 -3 123 -6 288 -6 l302 -1 43 -87 c23 -49 44 -89
45 -91 1 -2 161 -2 355 -1 195 0 370 1 389 1 19 0 78 0 131 -2 53 -1 119 1
145 4 28 3 39 2 25 -2 -13 -4 41 -6 120 -4 117 3 151 7 182 23 21 10 44 19 52
19 8 0 20 8 27 19 7 10 16 18 20 17 14 -2 47 34 43 46 -3 7 5 18 17 23 13 6
22 16 20 23 -1 7 3 12 9 12 6 0 8 7 5 16 -4 10 1 25 10 35 10 11 15 28 12 44
-3 14 -1 28 3 31 10 6 12 137 3 147 -4 3 -8 24 -9 47 -3 42 -21 74 -35 65 -10
-6 -24 31 -16 43 7 11 -68 85 -77 76 -4 -4 -7 -1 -7 7 0 11 -2 11 -10 -1 -8
-12 -10 -11 -10 8 0 12 -3 23 -7 23 -5 1 -18 3 -30 4 -13 1 -30 8 -38 15 -9 8
-29 10 -51 7 -26 -4 -37 -2 -41 9 -4 12 -49 14 -295 14 -268 -1 -291 0 -304
17 -18 24 -18 78 1 93 8 7 15 19 15 26 0 16 16 19 25 4 4 -6 155 -10 421 -10
l414 0 0 155 0 155 -450 0 c-247 -1 -450 -4 -450 -8 0 -4 -21 -8 -48 -8 -31
-1 -63 -11 -94 -28 -58 -33 -127 -103 -135 -136 -3 -14 -10 -30 -15 -37 -5 -7
-7 -17 -3 -23 4 -6 1 -17 -5 -25 -6 -8 -9 -23 -5 -35 4 -13 1 -22 -9 -26 -18
-7 -23 -79 -6 -89 6 -3 10 -21 10 -39 0 -46 29 -126 46 -126 8 0 14 -8 14 -17
1 -10 8 -27 18 -38 22 -26 92 -80 92 -70 0 3 6 0 14 -8 29 -28 153 -38 434
-35 160 2 272 -1 272 -6 0 -5 3 -6 6 -3 11 11 63 -63 59 -83 -7 -35 -36 -68
-67 -74 -17 -3 -239 -6 -495 -6 -432 0 -464 1 -470 18 -4 9 -13 23 -20 30 -7
7 -13 20 -13 28 0 8 -4 12 -10 9 -5 -3 -12 6 -16 21 -5 19 -9 23 -16 12 -7 -9
-8 -8 -6 7 2 11 -2 25 -9 30 -8 6 -16 24 -19 40 -2 17 -57 137 -122 267 -93
190 -121 237 -137 238 -15 0 -17 2 -7 9 11 7 11 9 -1 14 -8 3 -14 17 -14 30 0
27 -10 41 -58 89 -53 52 -65 62 -71 55 -4 -3 -19 0 -35 8 -37 20 -180 18 -236
-1z m1110 -1191 c-7 -2 -19 -2 -25 0 -7 3 -2 5 12 5 14 0 19 -2 13 -5z"/>
<path d="M5430 3956 c0 -2 7 -7 16 -10 8 -3 12 -2 9 4 -6 10 -25 14 -25 6z"/>
<path d="M5530 3916 c0 -3 14 -12 30 -21 17 -9 30 -13 30 -11 0 3 -13 12 -30
21 -16 9 -30 13 -30 11z"/>
<path d="M5576 3728 c-11 -53 -13 -79 -6 -71 4 4 10 27 13 51 5 44 1 58 -7 20z"/>
<path d="M5049 3704 c-5 -15 -8 -29 -5 -31 2 -2 8 10 14 26 13 38 5 41 -9 5z"/>
<path d="M4767 3713 c-12 -11 -8 -23 8 -23 8 0 15 7 15 15 0 16 -12 20 -23 8z"/>
<path d="M4390 3695 c0 -17 2 -18 24 -9 23 9 20 24 -4 24 -11 0 -20 -7 -20
-15z"/>
<path d="M5163 3665 c-3 -9 -3 -18 -1 -21 3 -3 8 4 11 16 6 23 -1 27 -10 5z"/>
<path d="M5112 3638 c-10 -30 -10 -31 3 -14 13 17 21 46 12 46 -1 0 -8 -15
-15 -32z"/>
<path d="M4340 3615 c0 -9 5 -15 11 -13 6 2 11 8 11 13 0 5 -5 11 -11 13 -6 2
-11 -4 -11 -13z"/>
<path d="M4320 3580 c0 -5 5 -10 10 -10 6 0 10 5 10 10 0 6 -4 10 -10 10 -5 0
-10 -4 -10 -10z"/>
<path d="M4680 3580 c0 -5 5 -10 10 -10 6 0 10 5 10 10 0 6 -4 10 -10 10 -5 0
-10 -4 -10 -10z"/>
<path d="M4986 3553 c-6 -14 -5 -15 5 -6 7 7 10 15 7 18 -3 3 -9 -2 -12 -12z"/>
<path d="M4655 3549 c-4 -6 -5 -13 -2 -16 7 -7 27 6 27 18 0 12 -17 12 -25 -2z"/>
<path d="M4290 3546 c0 -2 7 -6 15 -10 8 -3 15 -1 15 4 0 6 -7 10 -15 10 -8 0
-15 -2 -15 -4z"/>
<path d="M5355 3529 c-4 -6 -5 -12 -2 -15 2 -3 7 2 10 11 7 17 1 20 -8 4z"/>
<path d="M4630 3505 c0 -9 -7 -18 -15 -21 -19 -8 -20 -24 -1 -24 8 0 19 14 25
30 6 18 6 30 0 30 -5 0 -9 -7 -9 -15z"/>
<path d="M4934 3478 l-19 -23 23 19 c12 11 22 21 22 23 0 8 -8 2 -26 -19z"/>
<path d="M5049 3453 c-13 -16 -12 -17 4 -4 9 7 17 15 17 17 0 8 -8 3 -21 -13z"/>
<path d="M4580 3436 c0 -9 5 -16 10 -16 6 0 10 4 10 9 0 6 -4 13 -10 16 -5 3
-10 -1 -10 -9z"/>
<path d="M4945 3393 c-56 -51 -56 -53 -9 -15 46 38 82 73 73 72 -2 -1 -31 -26
-64 -57z"/>
<path d="M4200 3410 c0 -5 5 -10 10 -10 6 0 10 5 10 10 0 6 -4 10 -10 10 -5 0
-10 -4 -10 -10z"/>
<path d="M5003 3398 c-15 -20 -25 -38 -20 -38 3 0 12 11 21 25 17 26 16 35 -1
13z"/>
<path d="M4829 3373 c-13 -16 -12 -17 4 -4 16 13 21 21 13 21 -2 0 -10 -8 -17
-17z"/>
<path d="M4781 3340 c-13 -11 -19 -20 -14 -20 6 0 18 9 28 20 23 25 17 25 -14
0z"/>
<path d="M4146 3335 c-3 -9 0 -15 9 -15 8 0 15 7 15 15 0 8 -4 15 -9 15 -5 0
-11 -7 -15 -15z"/>
<path d="M5390 3326 c0 -2 8 -10 18 -17 15 -13 16 -12 3 4 -13 16 -21 21 -21
13z"/>
<path d="M4655 3275 c-16 -8 -23 -14 -14 -15 8 0 24 7 35 15 23 18 18 18 -21
0z"/>
<path d="M4840 3269 c-17 -13 -18 -17 -5 -10 33 17 51 31 40 31 -5 0 -21 -10
-35 -21z"/>
<path d="M5394 3268 l-19 -23 23 19 c12 11 22 21 22 23 0 8 -8 2 -26 -19z"/>
<path d="M4740 3264 c-33 -13 -33 -14 -5 -8 17 3 34 10 40 15 11 11 8 11 -35
-7z"/>
<path d="M4095 3261 c-3 -5 -1 -12 5 -16 5 -3 10 1 10 9 0 18 -6 21 -15 7z"/>
<path d="M4585 3239 c-4 -6 -5 -12 -2 -15 2 -3 7 2 10 11 7 17 1 20 -8 4z"/>
<path d="M4740 3220 c-9 -6 -10 -10 -3 -10 6 0 15 5 18 10 8 12 4 12 -15 0z"/>
<path d="M4416 3201 c-4 -7 -5 -15 -2 -18 9 -9 19 4 14 18 -4 11 -6 11 -12 0z"/>
<path d="M4030 3165 c0 -8 5 -15 10 -15 6 0 10 7 10 15 0 8 -4 15 -10 15 -5 0
-10 -7 -10 -15z"/>
<path d="M4377 3154 c-8 -8 1 -24 14 -24 5 0 9 7 9 15 0 15 -12 20 -23 9z"/>
<path d="M5160 3153 c8 -3 24 -10 35 -15 20 -9 20 -9 1 6 -11 9 -27 16 -35 15
-14 0 -14 -1 -1 -6z"/>
<path d="M4984 3084 c-18 -14 -18 -15 4 -4 12 6 22 13 22 15 0 8 -5 6 -26 -11z"/>
<path d="M3940 3044 c0 -9 5 -14 12 -12 18 6 21 28 4 28 -9 0 -16 -7 -16 -16z"/>
<path d="M4410 3020 c-12 -16 -19 -30 -16 -30 2 0 14 14 26 30 12 17 19 30 16
30 -2 0 -14 -13 -26 -30z"/>
<path d="M4257 2983 c-12 -11 -8 -23 8 -23 8 0 15 7 15 15 0 16 -12 20 -23 8z"/>
<path d="M890 2960 c0 -5 5 -10 11 -10 5 0 7 5 4 10 -3 6 -8 10 -11 10 -2 0
-4 -4 -4 -10z"/>
<path d="M4236 2933 c-6 -14 -5 -15 5 -6 7 7 10 15 7 18 -3 3 -9 -2 -12 -12z"/>
<path d="M4508 2943 c6 -2 18 -2 25 0 6 3 1 5 -13 5 -14 0 -19 -2 -12 -5z"/>
<path d="M4190 2890 c0 -5 7 -10 16 -10 8 0 12 5 9 10 -3 6 -10 10 -16 10 -5
0 -9 -4 -9 -10z"/>
<path d="M3820 2875 c0 -8 5 -15 10 -15 6 0 10 7 10 15 0 8 -4 15 -10 15 -5 0
-10 -7 -10 -15z"/>
<path d="M4715 2870 c10 -11 20 -20 23 -20 3 0 -3 9 -13 20 -10 11 -20 20 -23
20 -3 0 3 -9 13 -20z"/>
<path d="M4295 2854 c-9 -15 -12 -23 -6 -20 11 7 35 46 28 46 -3 0 -12 -12
-22 -26z"/>
<path d="M3960 2830 c-19 -5 -14 -7 23 -7 29 0 43 3 35 8 -15 10 -24 10 -58
-1z"/>
<path d="M2828 2823 c7 -3 16 -2 19 1 4 3 -2 6 -13 5 -11 0 -14 -3 -6 -6z"/>
<path d="M4287 2799 c7 -7 15 -10 18 -7 3 3 -2 9 -12 12 -14 6 -15 5 -6 -5z"/>
</g>
</svg>
